<?xml version="1.0" standalone="no"?>
<!DOCTYPE svg PUBLIC "-//W3C//DTD SVG 20010904//EN"
 "http://www.w3.org/TR/2001/REC-SVG-20010904/DTD/svg10.dtd">
<svg version="1.0" xmlns="http://www.w3.org/2000/svg"
 width="400.000000pt" height="400.000000pt" viewBox="0 0 400.000000 400.000000"
 preserveAspectRatio="xMidYMid meet">
<metadata>
Created by potrace 1.16, written by Peter Selinger 2001-2019
</metadata>
<g transform="translate(0.000000,400.000000) scale(0.100000,-0.100000)"
fill="#000000" stroke="none">
<path d="M1845 3650 c-275 -29 -547 -137 -760 -299 -139 -106 -294 -275 -383
-416 -68 -109 -168 -350 -187 -453 -42 -226 -50 -329 -35 -472 38 -366 170
-662 414 -928 145 -158 405 -323 617 -391 199 -64 285 -76 519 -75 236 1 409
40 616 138 456 217 765 622 855 1121 18 104 20 144 16 300 -5 191 -22 291 -72
442 -89 264 -271 526 -492 703 -207 167 -449 274 -718 319 -88 15 -298 21
-390 11z m457 -45 c282 -58 530 -189 735 -388 204 -198 331 -407 408 -671 44
-155 58 -272 52 -461 -7 -240 -46 -403 -147 -610 -344 -707 -1170 -1027 -1905
-738 -351 138 -631 400 -800 748 -101 208 -145 404 -145 642 0 222 33 394 114
586 84 201 184 345 348 502 248 239 532 371 888 415 115 14 321 2 452 -25z"/>
<path d="M2460 3210 c-19 -36 -23 -115 -10 -219 9 -75 9 -105 1 -115 -6 -7
-18 -37 -27 -65 -10 -35 -29 -65 -59 -95 -24 -24 -51 -59 -60 -77 -23 -44 -81
-96 -125 -110 -146 -47 -267 -173 -326 -339 -58 -163 -62 -490 -8 -679 7 -22
5 -23 -27 -17 -233 46 -497 -28 -631 -176 -66 -72 -61 -142 15 -215 75 -74
196 -122 305 -123 65 0 92 13 92 44 0 39 -31 65 -95 81 -33 9 -88 29 -122 46
-58 28 -63 33 -63 63 0 21 8 40 24 55 80 75 364 78 486 5 74 -43 136 -54 194
-33 26 9 44 7 101 -11 39 -12 111 -24 160 -27 110 -7 135 7 144 78 5 38 9 44
29 44 15 0 29 -10 40 -30 36 -62 85 -90 145 -80 40 7 77 38 77 65 0 9 9 25 20
35 29 27 25 57 -16 98 -34 34 -36 39 -45 134 -15 171 -11 313 10 374 17 51 70
172 93 213 21 40 41 124 44 186 3 89 14 126 61 195 57 85 70 113 83 182 9 51
8 73 -6 125 -18 70 -19 80 -9 261 8 125 7 127 -14 127 -13 0 -52 -30 -101 -76
l-80 -76 -74 7 -74 7 -38 65 c-22 36 -51 71 -66 79 -35 18 -35 18 -48 -6z"/>
</g>
</svg>
